<?xml version="1.0" encoding="UTF-8" standalone="no"?>
<!DOCTYPE svg PUBLIC "-//W3C//DTD SVG 1.1//EN" "http://www.w3.org/Graphics/SVG/1.1/DTD/svg11.dtd">
<svg width="100%" height="100%" viewBox="0 0 65 58" version="1.1" xmlns="http://www.w3.org/2000/svg" xmlns:xlink="http://www.w3.org/1999/xlink" xml:space="preserve" xmlns:serif="http://www.serif.com/" style="fill-rule:evenodd;clip-rule:evenodd;stroke-linejoin:round;stroke-miterlimit:2;">
    <g transform="matrix(0.336963,0,0,0.33716,6.90705,34.973)">
        <path d="M0,-62.144L3.21,-73.283C3.419,-74.079 3.892,-74.677 4.626,-75.076C5.359,-75.475 6.125,-75.569 6.923,-75.359C7.719,-75.149 8.317,-74.677 8.716,-73.943C9.114,-73.209 9.209,-72.443 8.999,-71.646C8.957,-71.604 8.937,-71.562 8.937,-71.52L2.392,-52.138L19.509,20.672L19.887,18.785L21.208,11.484C21.669,9.051 22.151,6.629 22.655,4.217C23.159,1.803 23.662,-0.598 24.166,-2.989C25.173,-7.856 26.211,-12.681 27.28,-17.463C28.351,-22.246 29.493,-27.049 30.71,-31.874C31.885,-36.698 33.143,-41.481 34.486,-46.223C35.199,-48.614 35.902,-50.995 36.595,-53.365C37.286,-55.735 38.011,-58.116 38.766,-60.508C39.185,-61.724 39.584,-62.909 39.961,-64.063C40.339,-65.217 40.758,-66.381 41.22,-67.556C41.639,-68.772 42.069,-69.957 42.51,-71.111C42.95,-72.265 43.422,-73.429 43.926,-74.604C44.891,-76.953 45.918,-79.261 47.01,-81.526L48.834,-84.925L50.974,-88.26C51.436,-88.931 52.075,-89.34 52.894,-89.487C53.712,-89.634 54.456,-89.477 55.127,-89.015C55.84,-88.512 56.26,-87.861 56.386,-87.064C56.512,-86.267 56.344,-85.512 55.883,-84.799C55.84,-84.799 55.819,-84.777 55.819,-84.736C55.483,-84.274 55.159,-83.812 54.844,-83.352C54.529,-82.889 54.204,-82.408 53.869,-81.904C53.575,-81.401 53.281,-80.897 52.987,-80.394C52.693,-79.89 52.399,-79.365 52.106,-78.82C51.561,-77.771 51.026,-76.712 50.502,-75.643C49.977,-74.573 49.464,-73.492 48.96,-72.402C48.457,-71.31 47.974,-70.199 47.513,-69.066C47.051,-67.934 46.59,-66.821 46.128,-65.731C45.666,-64.598 45.226,-63.455 44.807,-62.301C44.387,-61.147 43.967,-60.004 43.548,-58.872C42.708,-56.564 41.912,-54.256 41.157,-51.949C40.401,-49.642 39.646,-47.313 38.892,-44.964C38.178,-42.573 37.476,-40.223 36.783,-37.915C36.091,-35.608 35.408,-33.259 34.738,-30.868C33.395,-26.085 32.104,-21.334 30.868,-16.613C29.63,-11.894 28.423,-7.122 27.249,-2.297C26.661,0.094 26.095,2.486 25.55,4.877C25.004,7.269 24.459,9.66 23.914,12.051C23.62,13.268 23.348,14.475 23.096,15.67C22.844,16.865 22.593,18.07 22.341,19.288C22.047,20.504 21.774,21.7 21.522,22.875C21.271,24.049 21.02,25.244 20.768,26.463C20.725,26.797 20.578,27.061 20.327,27.249C20.075,27.438 19.802,27.49 19.509,27.406C19.005,27.363 18.69,27.092 18.564,26.588L18.564,26.525L-0.44,-43.768L-18.69,10.479C-18.774,10.688 -18.932,10.856 -19.162,10.981C-19.394,11.107 -19.634,11.128 -19.886,11.045C-20.432,10.834 -20.641,10.436 -20.515,9.849L-2.769,-52.39L-8.243,-72.716C-8.454,-73.471 -8.359,-74.184 -7.96,-74.856C-7.562,-75.526 -6.985,-75.967 -6.229,-76.177C-5.475,-76.387 -4.772,-76.292 -4.122,-75.894C-3.472,-75.495 -3.042,-74.919 -2.832,-74.164L-2.769,-74.101L0,-62.144Z" style="fill:rgb(35,31,32);fill-rule:nonzero;"/>
    </g>
    <g transform="matrix(0.336963,0,0,0.33716,23.129,30.4748)">
        <path d="M0,-21.931L-0.188,-21.931C-0.231,-21.889 -0.273,-21.868 -0.314,-21.868L-0.566,-21.743C-0.818,-21.658 -1.007,-21.574 -1.133,-21.491C-1.553,-21.28 -1.909,-21.029 -2.202,-20.736C-2.58,-20.484 -2.958,-20.169 -3.335,-19.791C-3.546,-19.623 -3.724,-19.455 -3.87,-19.288C-4.018,-19.12 -4.195,-18.931 -4.405,-18.722L-5.349,-17.526C-5.56,-17.316 -5.727,-17.096 -5.853,-16.865C-5.979,-16.634 -6.126,-16.414 -6.293,-16.204C-6.461,-15.994 -6.618,-15.774 -6.765,-15.544C-6.912,-15.313 -7.048,-15.093 -7.174,-14.883C-7.468,-14.505 -7.74,-14.043 -7.992,-13.498C-9.04,-11.737 -9.984,-9.806 -10.824,-7.709C-11.033,-7.205 -11.223,-6.692 -11.391,-6.167C-11.558,-5.642 -11.746,-5.129 -11.957,-4.625C-12.124,-4.121 -12.271,-3.608 -12.397,-3.083C-12.523,-2.559 -12.649,-2.045 -12.774,-1.541L-13.026,0.031C-13.067,0.283 -13.09,0.535 -13.09,0.787L-13.09,2.234L-12.964,2.8L-12.9,2.926L-12.838,2.99L-12.774,2.926C-12.732,2.926 -12.69,2.906 -12.649,2.863L-12.146,2.611L-11.705,2.108L-11.201,1.542L-10.698,0.913L-10.258,0.283C-10.132,0.074 -9.995,-0.147 -9.849,-0.377C-9.701,-0.608 -9.565,-0.85 -9.439,-1.102C-8.936,-1.983 -8.453,-2.947 -7.992,-3.996C-7.782,-4.457 -7.573,-4.94 -7.362,-5.444C-7.153,-5.947 -6.944,-6.471 -6.733,-7.016C-6.649,-7.268 -6.556,-7.52 -6.45,-7.772C-6.346,-8.024 -6.252,-8.275 -6.167,-8.527L-5.853,-9.345C-5.769,-9.681 -5.686,-9.932 -5.601,-10.1L-5.349,-10.918L-5.286,-11.296L-5.16,-11.674L-4.908,-12.492L-4.908,-12.681C-4.908,-12.722 -4.898,-12.753 -4.877,-12.775C-4.856,-12.795 -4.846,-12.827 -4.846,-12.869L-4.782,-13.058C-4.782,-13.141 -4.762,-13.204 -4.72,-13.247L-4.594,-13.561C-4.301,-14.148 -3.87,-14.547 -3.304,-14.757C-2.737,-14.967 -2.161,-14.924 -1.573,-14.631C-1.069,-14.421 -0.703,-14.075 -0.472,-13.593C-0.242,-13.11 -0.168,-12.638 -0.252,-12.177L-0.503,-10.667C-0.588,-10.415 -0.64,-10.163 -0.661,-9.911C-0.683,-9.66 -0.714,-9.408 -0.755,-9.156C-0.966,-8.149 -1.092,-7.143 -1.133,-6.135C-1.133,-6.093 -1.144,-6.062 -1.164,-6.041C-1.186,-6.02 -1.195,-5.989 -1.195,-5.947L1.133,-9.848C1.594,-10.604 2.045,-11.348 2.486,-12.082C2.927,-12.816 3.377,-13.54 3.839,-14.254C4.3,-15.009 4.761,-15.753 5.224,-16.488C5.685,-17.221 6.146,-17.945 6.607,-18.659C6.817,-18.994 7.111,-19.203 7.489,-19.288C7.866,-19.371 8.223,-19.309 8.559,-19.099C8.894,-18.889 9.104,-18.596 9.188,-18.218C9.271,-17.841 9.209,-17.484 8.999,-17.148L6.293,-12.743L3.65,-8.338C3.188,-7.624 2.758,-6.891 2.36,-6.135C1.961,-5.38 1.552,-4.625 1.133,-3.869L-0.062,-1.667C-0.525,-0.912 -0.902,-0.157 -1.195,0.597C-1.363,0.976 -1.646,1.249 -2.045,1.416C-2.444,1.584 -2.832,1.564 -3.209,1.353C-3.42,1.312 -3.608,1.164 -3.775,0.913C-3.86,0.83 -3.944,0.703 -4.027,0.535C-4.112,0.451 -4.153,0.388 -4.153,0.346C-4.153,0.304 -4.175,0.242 -4.216,0.158L-4.405,-0.346L-4.657,-1.289L-4.846,-3.052C-4.888,-3.135 -4.908,-3.282 -4.908,-3.493L-5.412,-2.674C-5.748,-2.171 -6.052,-1.667 -6.324,-1.164C-6.598,-0.66 -6.901,-0.178 -7.237,0.283L-8.181,1.73L-8.747,2.423C-8.831,2.548 -8.914,2.674 -8.999,2.8C-9.083,2.926 -9.188,3.031 -9.313,3.115C-9.648,3.578 -10.09,4.037 -10.635,4.5C-10.887,4.709 -11.201,4.898 -11.579,5.066C-11.746,5.15 -11.957,5.233 -12.208,5.318C-12.25,5.318 -12.292,5.339 -12.334,5.381L-13.31,5.381C-13.456,5.381 -13.593,5.339 -13.719,5.256C-14.054,5.129 -14.306,4.982 -14.474,4.814C-14.6,4.73 -14.694,4.626 -14.757,4.5C-14.82,4.374 -14.893,4.269 -14.978,4.185L-15.292,3.619C-15.376,3.41 -15.428,3.22 -15.449,3.052C-15.47,2.884 -15.501,2.716 -15.544,2.548C-15.544,2.381 -15.554,2.224 -15.575,2.077C-15.596,1.93 -15.606,1.773 -15.606,1.605L-15.606,0.661C-15.606,0.368 -15.585,0.053 -15.544,-0.284C-15.501,-0.577 -15.47,-0.86 -15.449,-1.133C-15.428,-1.405 -15.376,-1.688 -15.292,-1.983C-15.25,-2.276 -15.207,-2.559 -15.166,-2.832C-15.124,-3.104 -15.061,-3.387 -14.978,-3.682C-14.893,-3.975 -14.82,-4.258 -14.757,-4.532C-14.694,-4.803 -14.62,-5.086 -14.537,-5.38C-14.452,-5.674 -14.38,-5.957 -14.316,-6.23C-14.254,-6.502 -14.18,-6.765 -14.097,-7.016C-14.012,-7.31 -13.928,-7.592 -13.845,-7.866C-13.76,-8.139 -13.677,-8.401 -13.593,-8.653L-12.46,-11.925C-12.25,-12.47 -12.029,-13.005 -11.8,-13.53C-11.568,-14.054 -11.327,-14.568 -11.075,-15.072C-10.991,-15.365 -10.887,-15.638 -10.761,-15.89C-10.635,-16.141 -10.51,-16.393 -10.384,-16.645C-10.258,-16.938 -10.121,-17.211 -9.975,-17.463C-9.827,-17.715 -9.691,-17.967 -9.565,-18.218C-9.439,-18.47 -9.303,-18.722 -9.156,-18.973C-9.009,-19.225 -8.852,-19.477 -8.685,-19.728L-7.74,-21.239C-7.573,-21.491 -7.405,-21.743 -7.237,-21.994C-7.069,-22.246 -6.881,-22.497 -6.671,-22.749C-6.461,-23.001 -6.262,-23.253 -6.072,-23.504C-5.884,-23.756 -5.686,-23.986 -5.475,-24.197C-5.266,-24.449 -5.034,-24.689 -4.782,-24.92C-4.531,-25.15 -4.279,-25.371 -4.027,-25.581C-3.901,-25.707 -3.766,-25.822 -3.618,-25.927C-3.472,-26.032 -3.335,-26.126 -3.209,-26.21C-3.126,-26.294 -3.042,-26.357 -2.958,-26.399C-2.874,-26.441 -2.79,-26.483 -2.706,-26.525C-2.622,-26.609 -2.539,-26.651 -2.454,-26.651L-2.266,-26.84C-1.636,-27.217 -0.955,-27.312 -0.22,-27.123C0.514,-26.934 1.07,-26.525 1.447,-25.896C1.825,-25.266 1.92,-24.584 1.73,-23.85C1.542,-23.116 1.133,-22.56 0.504,-22.183L0,-21.931Z" style="fill:rgb(35,31,32);fill-rule:nonzero;"/>
    </g>
    <g transform="matrix(0.336963,0,0,0.33716,22.8318,22.1787)">
        <path d="M0,31.623L0.062,31.56L0.062,31.496C0.062,31.538 0.042,31.56 0,31.56L0,31.623ZM-2.266,29.924L-2.266,29.986L-2.203,29.924L-2.266,29.924ZM12.963,3.052C12.501,4.018 12.051,4.982 11.61,5.947C11.17,6.913 10.739,7.877 10.32,8.842L7.74,14.694L5.978,18.91C6.523,18.197 7.069,17.475 7.614,16.74C8.16,16.006 8.726,15.282 9.313,14.568C10.026,13.73 10.729,12.901 11.422,12.082C12.113,11.265 12.815,10.457 13.529,9.66C13.697,9.451 13.865,9.251 14.033,9.062C14.2,8.873 14.389,8.675 14.6,8.464C14.978,8.045 15.375,7.646 15.795,7.269L17.117,6.073L17.935,5.506L18.249,5.318L18.627,5.129L18.69,5.066L18.815,5.066L18.879,5.003L19.005,5.003L19.131,4.94L19.193,4.94C19.277,4.94 19.36,4.93 19.445,4.909C19.528,4.888 19.634,4.877 19.76,4.877C19.844,4.877 19.906,4.899 19.948,4.94C19.948,4.899 19.99,4.888 20.074,4.909C20.158,4.93 20.179,4.94 20.138,4.94L20.2,4.94C20.241,4.94 20.273,4.951 20.295,4.972C20.315,4.993 20.347,5.003 20.389,5.003C20.725,5.129 21.039,5.297 21.333,5.506L21.837,6.01L22.088,6.513L22.277,6.891L22.466,7.52C22.507,7.646 22.528,7.814 22.528,8.024C22.57,8.234 22.602,8.412 22.623,8.559C22.644,8.706 22.654,8.863 22.654,9.031C22.654,9.156 22.664,9.293 22.687,9.439C22.707,9.587 22.718,9.745 22.718,9.912C22.718,11.044 22.654,12.136 22.528,13.184C22.486,13.73 22.444,14.265 22.403,14.789C22.36,15.314 22.298,15.849 22.214,16.394L21.962,19.54C21.962,19.791 21.951,20.043 21.931,20.295C21.909,20.547 21.899,20.799 21.899,21.051C21.899,21.176 21.909,21.292 21.931,21.396C21.951,21.502 21.962,21.596 21.962,21.68L22.654,20.924L23.535,19.728C23.871,19.31 24.175,18.891 24.448,18.471C24.721,18.051 25.004,17.611 25.298,17.148C25.885,16.268 26.44,15.377 26.965,14.474C27.489,13.572 28.024,12.66 28.57,11.737L30.08,8.968L30.836,7.583C30.919,7.457 30.982,7.342 31.024,7.237C31.065,7.133 31.108,7.017 31.15,6.891L31.527,6.199C31.737,5.821 32.031,5.56 32.409,5.412C32.786,5.266 33.164,5.297 33.542,5.506C33.877,5.717 34.118,6.01 34.266,6.388C34.412,6.765 34.38,7.143 34.171,7.52C34.171,7.562 34.149,7.583 34.108,7.583L32.535,10.352L30.898,13.121C30.353,14.044 29.807,14.957 29.263,15.858C28.717,16.762 28.15,17.674 27.563,18.596L25.801,21.303L24.794,22.623C24.458,23.086 24.08,23.526 23.661,23.945C23.493,24.197 23.263,24.428 22.97,24.637L22.466,25.016C22.298,25.1 22.172,25.141 22.088,25.141L21.521,25.33C21.312,25.33 21.039,25.288 20.704,25.203C20.578,25.162 20.462,25.109 20.357,25.047C20.252,24.983 20.158,24.91 20.074,24.826C19.99,24.742 19.927,24.669 19.886,24.605C19.844,24.543 19.78,24.471 19.697,24.386L19.508,24.07L19.256,23.441L19.131,22.938C19.046,22.519 19.005,22.205 19.005,21.994C18.962,21.869 18.941,21.732 18.941,21.586L18.941,21.176C18.899,20.883 18.868,20.6 18.848,20.326C18.825,20.055 18.815,19.771 18.815,19.477C18.773,18.932 18.753,18.397 18.753,17.873L18.753,16.268L18.69,13.058L18.627,12.303L18.627,10.792C18.585,10.709 18.564,10.583 18.564,10.415C18.187,10.751 17.872,11.066 17.62,11.359L16.487,12.492C15.773,13.206 15.061,13.95 14.348,14.726C13.634,15.502 12.921,16.268 12.208,17.023L7.929,21.742C7.216,22.54 6.523,23.326 5.853,24.102C5.182,24.879 4.51,25.686 3.838,26.525L2.895,27.783C2.685,27.994 2.507,28.193 2.359,28.382C2.213,28.57 2.056,28.769 1.888,28.979L0.943,30.238L0.629,30.867C0.545,31.035 0.462,31.16 0.377,31.245L0.125,31.748L0,31.875L-0.315,32.189L-0.44,32.314L-0.566,32.378L-0.944,32.504C-0.985,32.504 -1.186,32.514 -1.542,32.535C-1.898,32.556 -2.244,32.355 -2.58,31.937C-2.79,31.56 -2.874,31.297 -2.832,31.15C-2.79,31.004 -2.79,30.889 -2.832,30.805C-2.79,30.721 -2.77,30.637 -2.77,30.553C-2.727,30.511 -2.706,30.469 -2.706,30.427L-2.644,30.364C-2.644,30.322 -2.622,30.279 -2.58,30.238C-2.58,30.195 -2.569,30.176 -2.549,30.176C-2.527,30.176 -2.518,30.154 -2.518,30.112L-2.392,29.861L-1.889,29.168L-1.825,29.105C-1.657,28.853 -1.511,28.519 -1.385,28.099C-1.175,27.637 -0.976,27.166 -0.787,26.683C-0.599,26.201 -0.398,25.707 -0.189,25.203C-0.063,24.994 0.053,24.764 0.157,24.512C0.262,24.26 0.356,24.008 0.44,23.756L1.007,22.309L1.51,20.799L2.076,19.288C2.287,18.827 2.465,18.344 2.611,17.841C2.759,17.338 2.937,16.834 3.146,16.331L4.153,13.31C4.489,12.303 4.813,11.296 5.129,10.289C5.443,9.282 5.769,8.275 6.104,7.269C6.44,6.262 6.755,5.255 7.048,4.248C7.342,3.241 7.636,2.213 7.929,1.164C8.14,0.452 8.559,-0.094 9.188,-0.472C9.816,-0.85 10.487,-0.933 11.201,-0.724C11.914,-0.513 12.46,-0.084 12.838,0.566C13.215,1.217 13.299,1.899 13.089,2.612C13.089,2.738 13.047,2.885 12.963,3.052" style="fill:rgb(35,31,32);fill-rule:nonzero;"/>
    </g>
    <g transform="matrix(0.336963,0,0,0.33716,34.5578,31.9458)">
        <path d="M0,-21.637C0,-20.923 0.063,-20.19 0.189,-19.434C0.272,-18.72 0.419,-17.987 0.63,-17.232C0.839,-16.477 1.049,-15.721 1.259,-14.967C1.511,-14.211 1.783,-13.456 2.077,-12.701C2.37,-11.945 2.685,-11.211 3.021,-10.498L3.272,-9.931L3.398,-9.68C4.111,-10.644 4.793,-11.609 5.443,-12.575C6.094,-13.54 6.755,-14.504 7.426,-15.47C8.978,-17.777 10.488,-20.168 11.957,-22.644C12.166,-22.979 12.449,-23.199 12.807,-23.304C13.162,-23.409 13.509,-23.357 13.845,-23.147C14.181,-22.937 14.4,-22.654 14.506,-22.298C14.61,-21.941 14.558,-21.595 14.349,-21.26L14.285,-21.26C12.858,-18.826 11.328,-16.392 9.691,-13.96C8.852,-12.742 8.023,-11.557 7.206,-10.404C6.388,-9.25 5.559,-8.086 4.72,-6.912C4.636,-6.827 4.552,-6.701 4.469,-6.534C4.51,-6.282 4.541,-6.019 4.562,-5.747C4.583,-5.474 4.594,-5.213 4.594,-4.961C4.678,-3.912 4.552,-2.904 4.217,-1.939C3.965,-1.058 3.565,-0.157 3.021,0.766C2.811,1.186 2.559,1.584 2.266,1.962C1.972,2.34 1.678,2.696 1.385,3.031C0.797,3.66 0.126,4.29 -0.629,4.92C-0.966,5.213 -1.321,5.487 -1.699,5.738C-2.076,5.989 -2.433,6.24 -2.769,6.492L-3.901,7.186L-4.531,7.5C-4.614,7.583 -4.72,7.625 -4.846,7.625L-4.972,7.752L-5.16,7.815C-5.495,7.982 -5.831,8.013 -6.167,7.908C-6.502,7.803 -6.754,7.583 -6.922,7.248C-7.132,6.87 -7.152,6.492 -6.985,6.115C-6.648,5.402 -6.313,4.72 -5.979,4.071C-5.642,3.419 -5.286,2.78 -4.908,2.151C-4.531,1.522 -4.143,0.903 -3.744,0.294C-3.345,-0.314 -2.936,-0.912 -2.517,-1.5C-2.014,-2.255 -1.489,-3.01 -0.943,-3.765C-0.399,-4.519 0.146,-5.275 0.692,-6.03L0.504,-6.66L0.063,-7.603L-0.566,-8.736C-0.986,-9.492 -1.374,-10.257 -1.73,-11.033C-2.086,-11.808 -2.433,-12.616 -2.769,-13.456C-3.104,-14.295 -3.408,-15.134 -3.682,-15.973C-3.953,-16.812 -4.194,-17.693 -4.405,-18.616C-4.488,-19.077 -4.572,-19.539 -4.656,-20.001C-4.74,-20.462 -4.803,-20.923 -4.846,-21.386C-4.887,-21.889 -4.897,-22.392 -4.877,-22.896C-4.855,-23.399 -4.803,-23.923 -4.72,-24.469C-4.635,-25.098 -4.488,-25.665 -4.279,-26.168C-4.194,-26.335 -4.122,-26.492 -4.059,-26.64C-3.996,-26.786 -3.922,-26.944 -3.839,-27.112C-3.754,-27.279 -3.659,-27.436 -3.556,-27.584C-3.45,-27.73 -3.335,-27.867 -3.209,-27.993C-2.957,-28.286 -2.621,-28.58 -2.202,-28.874C-1.867,-29.167 -1.384,-29.378 -0.755,-29.503C-0.294,-29.629 0.252,-29.65 0.881,-29.566C1.385,-29.524 1.866,-29.356 2.329,-29.063L3.021,-28.559C3.482,-28.223 3.766,-27.762 3.87,-27.175C3.975,-26.587 3.859,-26.063 3.524,-25.602C3.439,-25.517 3.388,-25.454 3.367,-25.413C3.346,-25.37 3.293,-25.328 3.21,-25.287L0,-22.266L0,-21.637Z" style="fill:rgb(35,31,32);fill-rule:nonzero;"/>
    </g>
    <g transform="matrix(0.336963,0,0,0.33716,45.4361,32.9712)">
        <path d="M0,-54.885L-0.063,-54.885L-0.063,-54.822C-0.063,-54.864 -0.043,-54.885 0,-54.885M-20.264,-25.748L-19.509,-27.133L-18.754,-28.517L-17.243,-31.286L-14.097,-36.824L-11.014,-42.236L-10.007,-43.935L-9.44,-45.697C-9.104,-46.704 -8.759,-47.711 -8.401,-48.718C-8.046,-49.725 -7.678,-50.732 -7.301,-51.739C-7.091,-52.242 -6.892,-52.745 -6.702,-53.249C-6.514,-53.752 -6.294,-54.277 -6.042,-54.822L-5.35,-56.395C-5.266,-56.521 -5.192,-56.647 -5.129,-56.773C-5.066,-56.899 -4.993,-57.046 -4.909,-57.214L-4.595,-57.654L-4.279,-58.157C-4.196,-58.199 -4.112,-58.304 -4.028,-58.472C-3.944,-58.513 -3.818,-58.619 -3.65,-58.787C-3.441,-58.996 -3.231,-59.143 -3.021,-59.227C-2.938,-59.311 -2.749,-59.394 -2.455,-59.479C-2.413,-59.52 -2.371,-59.542 -2.329,-59.542C-2.287,-59.542 -2.245,-59.552 -2.203,-59.573C-2.162,-59.594 -2.119,-59.605 -2.077,-59.605L-1.889,-59.605C-1.805,-59.646 -1.721,-59.668 -1.637,-59.668L-1.322,-59.668C-1.28,-59.668 -1.249,-59.657 -1.228,-59.636C-1.207,-59.615 -1.155,-59.605 -1.07,-59.605C-1.07,-59.563 -1.05,-59.542 -1.007,-59.542L-0.756,-59.542C-0.798,-59.542 -0.787,-59.531 -0.725,-59.51C-0.661,-59.489 -0.609,-59.479 -0.566,-59.479L0.125,-59.164L0.691,-58.661C0.817,-58.535 0.964,-58.346 1.133,-58.094C1.216,-57.884 1.279,-57.706 1.321,-57.56C1.362,-57.412 1.404,-57.277 1.447,-57.151L1.573,-56.458C1.573,-56.29 1.562,-56.133 1.541,-55.987C1.52,-55.839 1.51,-55.724 1.51,-55.64C1.426,-55.304 1.384,-55.094 1.384,-55.011L1.069,-54.004C0.901,-53.458 0.67,-52.892 0.377,-52.305C0.293,-52.053 0.188,-51.802 0.062,-51.55C-0.063,-51.298 -0.189,-51.047 -0.315,-50.795C-0.566,-50.291 -0.829,-49.798 -1.102,-49.316C-1.375,-48.833 -1.637,-48.361 -1.889,-47.9L-3.524,-45.131L-4.783,-43.054C-6.042,-39.446 -7.279,-35.796 -8.496,-32.104L-12.397,-20.148L-15.418,-10.771C-14.831,-11.862 -14.254,-12.92 -13.688,-13.949C-13.121,-14.977 -12.523,-16.035 -11.895,-17.127C-10.721,-19.266 -9.419,-21.447 -7.992,-23.672C-7.699,-24.217 -7.343,-24.762 -6.923,-25.308C-6.756,-25.601 -6.576,-25.874 -6.388,-26.126C-6.199,-26.378 -6,-26.65 -5.79,-26.944L-5.224,-27.762L-4.469,-28.58L-4.028,-29.021L-3.462,-29.461C-3.378,-29.545 -3.295,-29.597 -3.21,-29.618C-3.126,-29.639 -3.043,-29.691 -2.958,-29.776L-2.518,-29.902C-2.477,-29.902 -2.434,-29.911 -2.392,-29.933C-2.351,-29.954 -2.287,-29.965 -2.203,-29.965L-1.951,-29.965C-1.658,-29.965 -1.427,-29.943 -1.259,-29.902C-1.007,-29.817 -0.818,-29.713 -0.692,-29.587C-0.525,-29.503 -0.357,-29.398 -0.189,-29.272C-0.105,-29.188 -0.022,-29.062 0.062,-28.895C0.188,-28.769 0.251,-28.664 0.251,-28.58L0.377,-28.328L0.566,-27.825L0.691,-27.133C0.733,-26.923 0.755,-26.724 0.755,-26.535L0.755,-25.937C0.755,-25.727 0.744,-25.549 0.724,-25.402C0.701,-25.255 0.691,-25.077 0.691,-24.867C0.691,-24.615 0.649,-24.28 0.566,-23.861C0.44,-22.559 0.251,-21.281 0,-20.022L-0.818,-16.246C-0.986,-15.658 -1.144,-15.05 -1.29,-14.42C-1.438,-13.791 -1.616,-13.183 -1.825,-12.596L-2.015,-11.967L8.433,-25.937C8.642,-26.189 8.904,-26.346 9.219,-26.409C9.533,-26.472 9.816,-26.398 10.068,-26.189C10.32,-25.978 10.478,-25.717 10.54,-25.402C10.604,-25.088 10.529,-24.804 10.32,-24.552L-4.279,-4.918C-4.49,-4.666 -4.752,-4.51 -5.066,-4.447C-5.381,-4.383 -5.664,-4.456 -5.916,-4.666C-6.336,-5.044 -6.482,-5.463 -6.356,-5.925L-5.664,-9.638L-5.035,-13.288C-4.825,-14.504 -4.605,-15.732 -4.374,-16.969C-4.144,-18.206 -3.924,-19.434 -3.713,-20.651L-3.336,-23.735L-4.783,-21.595L-8.748,-15.302L-12.649,-8.821L-16.488,-2.401L-20.39,4.081C-20.516,4.374 -20.715,4.574 -20.987,4.678C-21.26,4.783 -21.522,4.773 -21.774,4.647C-22.361,4.353 -22.571,3.955 -22.403,3.451L-22.403,3.262C-21.941,1.207 -21.48,-0.85 -21.02,-2.905C-20.557,-4.959 -20.075,-7.016 -19.572,-9.072C-19.109,-11.127 -18.618,-13.172 -18.093,-15.207C-17.568,-17.242 -17.034,-19.287 -16.488,-21.343C-16.153,-22.728 -15.796,-24.112 -15.418,-25.497C-15.041,-26.881 -14.663,-28.244 -14.285,-29.587L-14.411,-29.461C-15.041,-28.538 -15.691,-27.699 -16.362,-26.944L-17.369,-25.685C-17.537,-25.475 -17.694,-25.276 -17.841,-25.088C-17.988,-24.899 -18.167,-24.699 -18.376,-24.489C-18.88,-23.902 -19.424,-23.861 -20.013,-24.364C-20.474,-24.741 -20.557,-25.202 -20.264,-25.748" style="fill:rgb(35,31,32);fill-rule:nonzero;"/>
    </g>
    <g transform="matrix(0.336963,0,0,0.33716,49.5287,48.8745)">
        <path d="M0,-71.406L-0.315,-70.714L-0.692,-69.959C-0.861,-69.622 -0.966,-69.37 -1.008,-69.203L-1.385,-68.448L-2.644,-65.427C-3.063,-64.378 -3.451,-63.34 -3.808,-62.313C-4.164,-61.283 -4.51,-60.246 -4.846,-59.198C-5.014,-58.694 -5.161,-58.18 -5.287,-57.656C-5.412,-57.131 -5.538,-56.617 -5.664,-56.114L-5.916,-54.604C-5.916,-54.478 -5.926,-54.352 -5.947,-54.226C-5.968,-54.1 -5.979,-53.975 -5.979,-53.848L-5.979,-53.533C-5.895,-53.574 -5.769,-53.68 -5.602,-53.848L-4.531,-54.981L-3.462,-56.177C-2.748,-57.058 -2.077,-57.917 -1.448,-58.757C-1.112,-59.218 -0.787,-59.658 -0.473,-60.078C-0.158,-60.497 0.167,-60.938 0.503,-61.401L2.391,-64.106C2.727,-64.567 3.03,-65.029 3.304,-65.49C3.576,-65.952 3.88,-66.413 4.216,-66.875C4.803,-67.84 5.39,-68.783 5.978,-69.707C6.565,-70.629 7.152,-71.573 7.74,-72.539C8.285,-73.42 8.819,-74.301 9.345,-75.182C9.869,-76.063 10.383,-76.965 10.887,-77.888L10.949,-78.076L11.075,-78.265C11.201,-78.517 11.41,-78.684 11.705,-78.769C11.998,-78.852 12.271,-78.81 12.522,-78.643C12.983,-78.349 13.152,-77.929 13.026,-77.385L13.026,-77.322L2.769,-45.289L3.335,-46.17C4.3,-47.723 5.286,-49.254 6.293,-50.765C7.3,-52.276 8.348,-53.764 9.439,-55.233C9.942,-55.989 10.467,-56.733 11.013,-57.467C11.557,-58.2 12.103,-58.924 12.648,-59.638L15.858,-63.98C16.906,-65.448 17.935,-66.916 18.941,-68.385C19.948,-69.853 20.871,-71.364 21.711,-72.916C21.92,-73.252 22.192,-73.461 22.528,-73.546C22.864,-73.629 23.179,-73.587 23.473,-73.42C23.808,-73.209 24.028,-72.948 24.134,-72.633C24.237,-72.319 24.206,-71.993 24.039,-71.657C23.577,-70.818 23.115,-70.01 22.654,-69.235C22.192,-68.458 21.731,-67.672 21.271,-66.875L18.249,-62.281L15.166,-57.875L12.146,-53.408C11.139,-51.898 10.163,-50.387 9.219,-48.877C8.274,-47.366 7.341,-45.836 6.418,-44.283C5.537,-42.731 4.677,-41.168 3.838,-39.594C2.999,-38.022 2.202,-36.438 1.447,-34.844C-1.658,-28.467 -4.426,-21.879 -6.86,-15.083L-6.985,-14.643L-13.216,4.677L-13.404,5.369L-13.468,5.495L-13.468,5.558C-13.72,6.271 -14.181,6.785 -14.853,7.099C-15.522,7.414 -16.215,7.446 -16.929,7.194C-17.6,6.943 -18.093,6.491 -18.407,5.842C-18.723,5.19 -18.774,4.529 -18.565,3.859C-16.341,-3.106 -13.908,-9.965 -11.265,-16.719C-11.055,-17.223 -10.856,-17.727 -10.667,-18.23C-10.479,-18.733 -10.278,-19.237 -10.069,-19.74L7.551,-68.637L5.789,-65.868L3.964,-63.099C3.796,-62.847 3.639,-62.606 3.492,-62.375C3.345,-62.145 3.209,-61.904 3.083,-61.652L2.14,-60.268L0.251,-57.498L-0.756,-56.177C-1.092,-55.674 -1.427,-55.211 -1.763,-54.792C-1.931,-54.582 -2.099,-54.362 -2.266,-54.131C-2.435,-53.901 -2.623,-53.68 -2.832,-53.471L-4.028,-52.149L-4.721,-51.52L-5.224,-51.205C-5.308,-51.121 -5.391,-51.069 -5.476,-51.048C-5.559,-51.026 -5.664,-50.975 -5.79,-50.891L-5.916,-50.891C-5.957,-50.891 -5.979,-50.879 -5.979,-50.86C-5.979,-50.838 -6,-50.828 -6.042,-50.828L-6.86,-50.828C-6.985,-50.869 -7.101,-50.911 -7.206,-50.953C-7.311,-50.994 -7.404,-51.037 -7.489,-51.079C-7.573,-51.162 -7.646,-51.226 -7.709,-51.268C-7.772,-51.309 -7.824,-51.372 -7.867,-51.457C-8.076,-51.709 -8.223,-51.961 -8.308,-52.212C-8.391,-52.547 -8.434,-52.757 -8.434,-52.842C-8.475,-53.051 -8.506,-53.229 -8.527,-53.376C-8.548,-53.523 -8.559,-53.68 -8.559,-53.848L-8.559,-54.792L-8.37,-56.555L-7.804,-59.952C-7.384,-62.133 -6.881,-64.336 -6.294,-66.56L-5.161,-71.469L-4.721,-73.168C-4.552,-73.881 -4.175,-74.427 -3.588,-74.804C-2.999,-75.182 -2.351,-75.265 -1.637,-75.056C-0.966,-74.888 -0.441,-74.51 -0.063,-73.923C0.314,-73.335 0.418,-72.706 0.251,-72.035C0.167,-71.783 0.083,-71.573 0,-71.406" style="fill:rgb(35,31,32);fill-rule:nonzero;"/>
    </g>
    <g transform="matrix(0.336963,0,0,0.33716,18.0232,33.5824)">
        <path d="M0,19.473C37.863,0.746 85.505,-2.379 125.78,9.03C127.197,9.431 129.871,8.262 131.2,7.869C131.521,7.776 134.535,6.697 134.106,6.576C102.801,-2.293 69.913,-1.309 38.388,5.897C22.812,9.457 6.777,13.973 -7.611,21.09C-9.155,21.852 -6.206,21.27 -5.909,21.207C-3.967,20.795 -1.793,20.36 0,19.473" style="fill:rgb(35,31,32);fill-rule:nonzero;"/>
    </g>
    <g transform="matrix(0.336963,0,0,0.33716,59.2045,22.5714)">
        <path d="M0,0.001C0.009,4.472 3.626,8.09 8.1,8.099C12.572,8.09 16.189,4.472 16.196,0.001C16.189,-4.471 12.572,-8.088 8.1,-8.097C3.626,-8.088 0.009,-4.471 0,0.001M-1.001,0.001C-0.999,-5.023 3.073,-9.096 8.1,-9.098C13.122,-9.096 17.196,-5.023 17.198,0.001C17.196,5.025 13.122,9.099 8.1,9.099C3.073,9.099 -0.999,5.025 -1.001,0.001" style="fill:rgb(35,31,32);fill-rule:nonzero;"/>
    </g>
    <g transform="matrix(0.336963,0,0,0.33716,61.4283,22.5866)">
        <path d="M0,-0.617L1.487,-0.617C3.041,-0.617 4.026,-1.469 4.026,-2.756C4.026,-4.209 2.974,-4.845 1.437,-4.861C0.735,-4.861 0.233,-4.794 0,-4.727L0,-0.617ZM-1.454,-5.746C-0.719,-5.897 0.334,-5.981 1.337,-5.981C2.891,-5.981 3.893,-5.697 4.595,-5.061C5.163,-4.56 5.48,-3.792 5.48,-2.923C5.48,-1.436 4.545,-0.45 3.358,-0.049L3.358,0.001C4.228,0.302 4.745,1.104 5.013,2.274C5.38,3.844 5.647,4.93 5.881,5.364L4.377,5.364C4.193,5.03 3.943,4.078 3.626,2.674C3.291,1.12 2.689,0.536 1.37,0.486L0,0.486L0,5.364L-1.454,5.364L-1.454,-5.746Z" style="fill:rgb(35,31,32);fill-rule:nonzero;"/>
    </g>
</svg>
